HIERARCHY
ROOT root
{
	OFFSET 0.000000 0.000000 0.000000
	CHANNELS 6 Xposition Yposition Zposition Zrotation Yrotation Xrotation
	JOINT lhip
	{
		OFFSET 0.058581 -0.082280 -0.017664
		CHANNELS 3 Zrotation Yrotation Xrotation
		JOINT lknee
		{
			OFFSET 0.043451 -0.386469 0.008037
			CHANNELS 3 Zrotation Yrotation Xrotation
			JOINT lankle
			{
				OFFSET -0.014790 -0.426874 -0.037428
				CHANNELS 3 Zrotation Yrotation Xrotation
				JOINT ltoe
				{
					OFFSET 0.041054 -0.060286 0.122042
					CHANNELS 3 Zrotation Yrotation Xrotation
					End Site
					{
						OFFSET 0.000000 0.000000 0.000000
					}
				}
			}
		}
	}
	JOINT rhip
	{
		OFFSET -0.060310 -0.090513 -0.013543
		CHANNELS 3 Zrotation Yrotation Xrotation
		JOINT rknee
		{
			OFFSET -0.043257 -0.383688 -0.004843
			CHANNELS 3 Zrotation Yrotation Xrotation
			JOINT rankle
			{
				OFFSET 0.019056 -0.420046 -0.034562
				CHANNELS 3 Zrotation Yrotation Xrotation
				JOINT rtoe
				{
					OFFSET -0.034840 -0.062106 0.130323
					CHANNELS 3 Zrotation Yrotation Xrotation
					End Site
					{
						OFFSET 0.000000 0.000000 0.000000
					}
				}
			}
		}
	}
	JOINT lowerback
	{
		OFFSET 0.004439 0.124404 -0.038385
		CHANNELS 3 Zrotation Yrotation Xrotation
		JOINT upperback
		{
			OFFSET 0.004488 0.137956 0.026820
			CHANNELS 3 Zrotation Yrotation Xrotation
			JOINT chest
			{
				OFFSET -0.002265 0.056032 0.002855
				CHANNELS 3 Zrotation Yrotation Xrotation
				JOINT lowerneck
				{
					OFFSET -0.013390 0.211636 -0.033468
					CHANNELS 3 Zrotation Yrotation Xrotation
					JOINT upperneck
					{
						OFFSET 0.010113 0.088937 0.050410
						CHANNELS 3 Zrotation Yrotation Xrotation
						End Site
						{
							OFFSET 0.000000 0.000000 0.000000
						}
					}
				}
				JOINT lclavicle
				{
					OFFSET 0.071702 0.114000 -0.018898
					CHANNELS 3 Zrotation Yrotation Xrotation
					JOINT lshoulder
					{
						OFFSET 0.122921 0.045205 -0.019046
						CHANNELS 3 Zrotation Yrotation Xrotation
						JOINT lelbow
						{
							OFFSET 0.255332 -0.015649 -0.022946
							CHANNELS 3 Zrotation Yrotation Xrotation
							JOINT lwrist
							{
								OFFSET 0.265709 0.012698 -0.007375
								CHANNELS 3 Zrotation Yrotation Xrotation
								End Site
								{
									OFFSET 0.000000 0.000000 0.000000
								}
							}
						}
					}
				}
				JOINT rclavicle
				{
					OFFSET -0.082954 0.112472 -0.023707
					CHANNELS 3 Zrotation Yrotation Xrotation
					JOINT rshoulder
					{
						OFFSET -0.113228 0.046853 -0.008472
						CHANNELS 3 Zrotation Yrotation Xrotation
						JOINT relbow
						{
							OFFSET -0.260127 -0.014369 -0.031269
							CHANNELS 3 Zrotation Yrotation Xrotation
							JOINT rwrist
							{
								OFFSET -0.269108 0.006794 -0.006027
								CHANNELS 3 Zrotation Yrotation Xrotation
								End Site
								{
									OFFSET 0.000000 0.000000 0.000000
								}
							}
						}
					}
				}
			}
		}
	}
}
MOTION
Frames: 18
Frame Time: 0.033333
0.023498 0.294024 0.990243 92.391501 0.425863 89.726508 8.515346 2.723176 2.589864 -1.787154 -4.945606 -1.112152 2.038520 9.293129 -7.219041 0.000000 -0.000000 0.000000 -10.551229 -6.469166 6.369664 2.147582 -2.388164 -2.082335 2.252857 -8.186904 -9.760321 0.000000 -0.000000 0.000000 2.669994 -0.683621 3.573927 0.693836 -2.908440 -3.497795 0.562150 -0.443709 0.599528 -3.868824 -5.587206 -2.523650 1.915347 -2.481168 8.871640 -21.700787 5.360084 3.221099 -63.827656 -8.349014 8.324510 8.360632 -25.258312 9.738932 1.739295 3.690352 -19.244090 21.953095 -1.257822 3.054121 54.495566 2.531232 11.706633 -9.975536 25.885780 9.542941 6.949544 -4.570660 5.956105 
0.019842 0.293590 0.990513 90.739347 0.097537 89.797017 8.074045 3.333091 2.674368 -1.695251 -4.626458 -1.123575 1.899548 9.983104 -7.201261 0.000000 -0.000000 0.000000 -10.834391 -4.847774 4.974725 2.133396 -2.637162 -0.836861 2.164937 -8.165416 -9.982071 0.000000 -0.000000 0.000000 2.263142 -0.470399 4.870062 0.496084 -1.745223 -4.617581 0.638357 -0.293061 0.689166 -3.507004 -5.369063 -2.927642 1.638884 -2.769693 9.289451 -21.337367 5.780146 2.795149 -64.100770 -8.328334 8.381470 8.322466 -25.430956 10.312353 1.090210 3.543677 -19.576075 22.024718 -1.342238 2.765389 54.692597 2.761372 12.213915 -10.098488 25.621642 9.192559 6.864737 -4.604669 5.776920 
0.025157 0.293684 0.990807 91.463221 0.187950 89.189972 8.209300 3.369146 3.799025 -1.607878 -5.197140 -1.659140 1.853586 9.585926 -7.487269 0.000000 -0.000000 0.000000 -10.992981 -6.100991 6.829301 2.451305 -2.763333 -2.235441 2.223296 -7.956610 -9.756386 0.000000 -0.000000 0.000000 2.478004 -0.486454 3.924826 0.518069 -2.510629 -3.075728 0.553409 -0.368166 0.337871 -4.313710 -5.264985 -1.594541 1.359519 -2.060092 8.631307 -21.510517 5.622361 3.091799 -64.108615 -8.078632 8.319192 8.606058 -25.754074 9.672778 0.997950 3.941702 -19.821256 21.802059 -1.207542 3.211648 54.862596 2.979102 11.711455 -9.947993 25.201195 8.669578 7.993852 -5.732042 5.253336 
0.025768 0.293318 0.990820 91.493617 0.193762 89.207646 8.221686 3.378357 3.796419 -1.616970 -5.099070 -1.700562 1.885454 9.505380 -7.437380 0.000000 -0.000000 0.000000 -10.959540 -6.180391 6.897286 2.430394 -2.676376 -2.337464 2.178761 -7.946938 -9.796476 0.000000 -0.000000 0.000000 2.501098 -0.469006 3.726072 0.518763 -2.573481 -2.908118 0.535092 -0.380758 0.373920 -4.328524 -5.199682 -1.617959 1.380239 -2.009844 8.630689 -21.465379 5.550508 3.177819 -64.266587 -8.126959 8.360799 8.814059 -25.863098 9.691454 0.757287 4.005823 -20.017988 21.814494 -1.175828 3.282597 54.898901 3.082284 11.712839 -10.006547 25.274991 8.664286 7.813327 -5.651484 5.156358 
0.025758 0.293264 0.990916 91.463041 0.204184 89.213627 8.216982 3.444614 3.797696 -1.600811 -5.124977 -1.702328 1.864480 9.523986 -7.411837 0.000000 -0.000000 0.000000 -10.950198 -6.186521 6.862588 2.437567 -2.697069 -2.299382 2.141355 -7.911143 -9.791461 0.000000 -0.000000 0.000000 2.568648 -0.494619 3.836906 0.477897 -2.546120 -2.950485 0.524782 -0.379018 0.307108 -4.342478 -5.267685 -1.770681 1.420146 -2.039943 8.673628 -21.488093 5.471552 3.127302 -64.287372 -8.070266 8.348344 8.856798 -25.851762 9.746966 0.642049 3.977721 -20.141661 21.780822 -1.144999 3.275343 54.914410 3.058247 11.660292 -9.951881 25.281440 8.738685 7.922391 -5.540907 5.075027 
0.025929 0.293108 0.990825 91.464774 0.204960 89.242265 8.227360 3.385540 3.773976 -1.628095 -5.132709 -1.677932 1.918419 9.498376 -7.468975 0.000000 -0.000000 0.000000 -10.925083 -6.165536 6.845252 2.415457 -2.655763 -2.309213 2.107848 -7.942249 -9.837757 0.000000 -0.000000 0.000000 2.564303 -0.506240 3.788519 0.491505 -2.553106 -2.940305 0.537054 -0.396305 0.329282 -4.335775 -5.230128 -1.850519 1.411637 -2.035098 8.684404 -21.495272 5.476612 3.112731 -64.341389 -8.072653 8.356066 8.913677 -25.882784 9.792831 0.604140 4.003108 -20.173790 21.754746 -1.170323 3.297064 54.926795 3.172878 11.663652 -9.915636 25.187779 8.823658 7.772266 -5.552610 5.324284 
0.026143 0.293191 0.990720 91.509313 0.193138 89.285848 8.202720 3.400926 3.773639 -1.590272 -5.085927 -1.797883 1.951731 9.461222 -7.471892 0.000000 -0.000000 0.000000 -10.950079 -6.206684 6.855489 2.429717 -2.681185 -2.378231 2.157915 -7.914950 -9.798913 0.000000 -0.000000 0.000000 2.576812 -0.498250 3.707328 0.480653 -2.604707 -2.889263 0.535511 -0.408104 0.321105 -4.356166 -5.293575 -1.771698 1.440412 -1.944042 8.624104 -21.462934 5.311715 3.181357 -64.439098 -8.061674 8.391586 9.021477 -25.674595 9.653647 0.886006 3.931577 -20.186431 21.731314 -1.106111 3.366326 54.953230 3.131844 11.681671 -9.974356 25.211222 8.719156 7.509079 -5.480658 5.452633 
0.026330 0.293066 0.990564 91.552582 0.191187 89.328690 8.223850 3.505409 3.719120 -1.618533 -5.245996 -1.712938 1.881820 9.469705 -7.493973 0.000000 -0.000000 0.000000 -10.954374 -6.266876 6.853271 2.456278 -2.642972 -2.434898 2.131579 -7.947039 -9.807875 0.000000 -0.000000 0.000000 2.552632 -0.507880 3.552751 0.507135 -2.656652 -2.747948 0.518451 -0.389430 0.335814 -4.279050 -5.300536 -1.810191 1.384131 -2.044199 8.683100 -21.457905 5.377975 3.115951 -64.396472 -8.261623 8.394658 8.800230 -25.486025 9.797926 1.010222 3.978285 -20.025782 21.778810 -1.191953 3.301505 54.877905 3.208202 11.652974 -9.914671 25.127107 8.828956 7.431958 -5.479811 5.521422 
0.026464 0.292881 0.990701 91.505334 0.207410 89.281697 8.239750 3.396216 3.808322 -1.622668 -5.137387 -1.751189 1.980226 9.462491 -7.514387 0.000000 -0.000000 0.000000 -10.926040 -6.254015 6.918435 2.438607 -2.626612 -2.485302 2.178466 -7.910630 -9.769759 0.000000 -0.000000 0.000000 2.569648 -0.473571 3.677746 0.502701 -2.640473 -2.754331 0.531859 -0.368090 0.293149 -4.266994 -5.357564 -1.796472 1.383288 -2.139081 8.622044 -21.505177 5.398266 3.039927 -64.343234 -8.207139 8.376710 8.816913 -25.516651 9.803042 0.680414 3.867622 -19.991202 21.763140 -1.270078 3.238804 54.884041 3.109470 11.612191 -10.003472 25.099298 8.797424 7.696167 -5.426239 5.319354 
0.026425 0.292825 0.990830 91.501344 0.202027 89.323168 8.215337 3.417967 3.703788 -1.607368 -5.149842 -1.657278 1.935989 9.491724 -7.555381 0.000000 -0.000000 0.000000 -10.934087 -6.244632 6.852455 2.465486 -2.658180 -2.469117 2.214781 -7.881421 -9.772315 0.000000 -0.000000 0.000000 2.580442 -0.511536 3.716675 0.488489 -2.684688 -2.780781 0.545804 -0.387822 0.226108 -4.265098 -5.429331 -1.870913 1.402940 -2.197624 8.553061 -21.490127 5.320099 3.106990 -64.331492 -8.072618 8.290065 8.874785 -25.570734 9.491649 0.657357 3.860274 -19.898887 21.719906 -1.243524 3.311185 54.865388 3.144066 11.570646 -9.988981 25.130952 8.751885 7.535513 -5.309823 5.657455 
0.026316 0.292692 0.990862 91.384921 0.205432 89.313836 8.214413 3.304454 3.784933 -1.587305 -5.115943 -1.806390 2.207709 9.529177 -7.577178 0.000000 -0.000000 0.000000 -10.908586 -6.177290 6.781995 2.426153 -2.594975 -2.370656 2.237944 -7.942381 -9.832780 0.000000 -0.000000 0.000000 2.547051 -0.487904 3.781621 0.492349 -2.623180 -2.803355 0.552816 -0.388221 0.263992 -4.276913 -5.371871 -1.818965 1.487177 -2.037928 8.511097 -21.443986 5.337315 3.060495 -64.305499 -8.065703 8.346488 8.776881 -25.484768 9.843417 0.878558 4.061830 -19.923339 21.705738 -1.227957 3.265826 54.848198 3.033654 11.589171 -10.004494 25.211202 8.856528 7.515844 -5.224530 5.569666 
0.026516 0.292676 0.990773 91.419332 0.226745 89.310921 8.252416 3.297119 3.790485 -1.617927 -5.075904 -1.784748 2.098798 9.576463 -7.554244 0.000000 -0.000000 0.000000 -10.896456 -6.249764 6.846806 2.440307 -2.580143 -2.485696 2.220913 -7.933561 -9.756530 0.000000 -0.000000 0.000000 2.589960 -0.499583 3.804134 0.480290 -2.701874 -2.767375 0.533549 -0.371545 0.217914 -4.276298 -5.385512 -1.862558 1.521978 -2.107349 8.522379 -21.442307 5.257645 3.130138 -64.269245 -8.074519 8.277794 8.798653 -25.353480 9.838991 1.281007 4.222605 -19.738907 21.718916 -1.161817 3.349862 54.808389 2.897119 11.605840 -10.052133 25.388604 9.054873 6.748863 -5.039628 5.878063 
0.026405 0.292632 0.990750 91.375267 0.254717 89.369385 8.292110 3.269983 3.708593 -1.644997 -5.037499 -1.694201 2.066666 9.645919 -7.529860 0.000000 -0.000000 0.000000 -10.838640 -6.234505 6.741676 2.413823 -2.572307 -2.425226 2.175946 -7.945710 -9.800470 0.000000 -0.000000 0.000000 2.633103 -0.533312 3.914729 0.458316 -2.684815 -2.888681 0.518079 -0.354007 0.108863 -4.252352 -5.280692 -1.784832 1.486455 -2.127814 8.556800 -21.440447 5.185126 3.226946 -64.204931 -7.881977 8.254854 8.881780 -25.493147 9.914245 1.365242 4.334096 -20.019719 21.680395 -1.225955 3.423169 54.863130 2.902306 11.555813 -10.014545 25.342376 9.187922 6.322391 -5.027369 6.053724 
0.026435 0.292755 0.990731 91.379679 0.253564 89.296013 8.294688 3.320185 3.819915 -1.631851 -5.042732 -1.732444 1.969849 9.652762 -7.546575 0.000000 -0.000000 0.000000 -10.831025 -6.175731 6.845846 2.372633 -2.560174 -2.446265 2.190034 -7.961197 -9.788917 0.000000 -0.000000 0.000000 2.661118 -0.580262 4.059084 0.441798 -2.701007 -2.848790 0.493335 -0.382078 0.094231 -4.270198 -5.348301 -1.935847 1.468936 -2.114661 8.604591 -21.445930 5.162276 3.254374 -64.095068 -7.919433 8.206058 8.786521 -25.489876 10.051190 1.497770 4.307781 -20.051206 21.603542 -1.182434 3.318839 54.953661 2.911104 11.559791 -10.093140 25.287553 9.026385 6.267292 -5.097035 6.009866 
0.026584 0.292773 0.990655 91.284384 0.267885 89.329875 8.310894 3.414483 3.831568 -1.630015 -5.101177 -1.770621 2.053858 9.680911 -7.555948 0.000000 -0.000000 0.000000 -10.829191 -6.178199 6.750163 2.386712 -2.490535 -2.365377 2.168497 -7.954184 -9.814248 0.000000 -0.000000 0.000000 2.675785 -0.569683 3.923467 0.456518 -2.652647 -2.706631 0.457974 -0.365440 0.170893 -4.352986 -5.410814 -1.956535 1.487690 -2.185342 8.516193 -21.439219 5.131595 3.338067 -64.048560 -8.053927 8.177490 8.754434 -25.511611 10.104043 1.512518 4.485608 -20.062465 21.603897 -1.169307 3.289368 54.899249 3.052419 11.422624 -10.012392 25.147377 9.110875 6.567840 -5.199242 5.849367 
0.026761 0.292842 0.990753 91.324528 0.264385 89.380730 8.303659 3.430665 3.782730 -1.640160 -5.123554 -1.799105 2.012481 9.659753 -7.517888 0.000000 -0.000000 0.000000 -10.825701 -6.176209 6.740984 2.376747 -2.519470 -2.423547 2.153937 -7.931045 -9.781552 0.000000 -0.000000 0.000000 2.646039 -0.555870 3.892939 0.466248 -2.674621 -2.752340 0.486478 -0.398663 0.215631 -4.370979 -5.324140 -1.919838 1.530596 -2.073151 8.492508 -21.527120 5.132263 3.378655 -63.947607 -7.994323 8.107971 8.863002 -25.743533 9.962942 1.009735 4.368747 -20.075920 21.557024 -1.227094 3.280260 54.856603 3.024632 11.319962 -10.062035 25.274121 9.067383 7.185702 -5.401203 5.451288 
0.026881 0.292884 0.990841 91.244189 0.258311 89.426203 8.281413 3.542547 3.757056 -1.628736 -5.129355 -1.758625 1.961962 9.688660 -7.502021 0.000000 -0.000000 0.000000 -10.842406 -6.180948 6.663256 2.377175 -2.517611 -2.408801 2.153626 -7.892062 -9.780943 0.000000 -0.000000 0.000000 2.618145 -0.524859 3.845261 0.476498 -2.620030 -2.769291 0.498636 -0.375805 0.236281 -4.414373 -5.265280 -1.705124 1.578683 -2.024428 8.454110 -21.494318 5.070328 3.291707 -63.938316 -7.907591 8.144070 8.808757 -25.735976 10.025434 0.971371 4.466271 -20.089191 21.540488 -1.280394 3.280291 54.791089 3.031967 11.206959 -10.086857 25.282272 8.863061 7.502829 -5.785459 5.274354 
0.027015 0.292968 0.990852 91.318131 0.238058 89.447360 8.253856 3.616912 3.740913 -1.618984 -5.260031 -1.780802 2.013534 9.633974 -7.502221 0.000000 -0.000000 0.000000 -10.851152 -6.191366 6.711010 2.361103 -2.471973 -2.478518 2.198596 -7.946383 -9.773124 0.000000 -0.000000 0.000000 2.597169 -0.552932 3.748269 0.457479 -2.673926 -2.646755 0.446381 -0.397526 0.229555 -4.358015 -5.246589 -1.732217 1.622957 -2.003330 8.528194 -21.503767 5.022920 3.272772 -63.802326 -7.828245 8.144677 8.760147 -25.878964 10.080322 1.096411 4.551675 -20.128287 21.588070 -1.237862 3.330031 54.794087 3.021563 11.211514 -10.125913 25.218171 8.825930 7.253050 -5.623174 5.294673 
